<svg width="13" height="21" viewBox="0 0 13 21" fill="none" xmlns="http://www.w3.org/2000/svg">
<path d="M8 20.9077H4C3.73478 20.9077 3.48043 20.7997 3.29289 20.6073C3.10536 20.415 3 20.1542 3 19.8822V13.524H1C0.734784 13.524 0.48043 13.4159 0.292893 13.2236C0.105357 13.0313 0 12.7704 0 12.4984V8.80657C0 8.53458 0.105357 8.27374 0.292893 8.08141C0.48043 7.88909 0.734784 7.78105 1 7.78105H3V6.03766C3.0701 4.47513 3.74062 3.00462 4.86497 1.94767C5.98932 0.890708 7.47602 0.333292 9 0.397295H12C12.2652 0.397295 12.5196 0.50534 12.7071 0.697663C12.8946 0.889985 13 1.15083 13 1.42282V5.11469C13 5.38668 12.8946 5.64752 12.7071 5.83984C12.5196 6.03217 12.2652 6.14021 12 6.14021H9V7.78105H12C12.1544 7.77985 12.307 7.81533 12.4458 7.88472C12.5846 7.95411 12.7058 8.05552 12.8 8.181C12.8931 8.30837 12.9561 8.45622 12.9839 8.61286C13.0116 8.7695 13.0035 8.93062 12.96 9.08346L11.96 12.7753C11.8995 12.9972 11.768 13.1916 11.5866 13.3274C11.4052 13.4633 11.1844 13.5325 10.96 13.524H9V19.8822C9 20.1542 8.89464 20.415 8.70711 20.6073C8.51957 20.7997 8.26522 20.9077 8 20.9077ZM5 18.8567H7V12.4984C7 12.2265 7.10536 11.9656 7.29289 11.7733C7.48043 11.581 7.73478 11.4729 8 11.4729H10.24L10.68 9.83209H8C7.73478 9.83209 7.48043 9.72404 7.29289 9.53172C7.10536 9.3394 7 9.07855 7 8.80657V6.03766C7.02568 5.51166 7.24767 5.01594 7.62 4.65321C7.99233 4.29047 8.48645 4.08851 9 4.08917H11V2.44834H9C8.00681 2.38628 7.02982 2.72834 6.28098 3.40029C5.53214 4.07225 5.07186 5.0199 5 6.03766V8.80657C5 9.07855 4.89464 9.3394 4.70711 9.53172C4.51957 9.72404 4.26522 9.83209 4 9.83209H2V11.4729H4C4.26522 11.4729 4.51957 11.581 4.70711 11.7733C4.89464 11.9656 5 12.2265 5 12.4984V18.8567Z" fill="white"/>
</svg>
