<svg width="20" height="21" viewBox="0 0 20 21" fill="none" xmlns="http://www.w3.org/2000/svg">
<path d="M9.99987 5.44866C7.33971 5.44866 5.19284 7.67186 5.19284 10.4266C5.19284 13.1813 7.33971 15.4045 9.99987 15.4045C12.66 15.4045 14.8069 13.1813 14.8069 10.4266C14.8069 7.67186 12.66 5.44866 9.99987 5.44866ZM9.99987 13.6619C8.27955 13.6619 6.87565 12.2081 6.87565 10.4266C6.87565 8.64511 8.27955 7.1913 9.99987 7.1913C11.7202 7.1913 13.1241 8.64511 13.1241 10.4266C13.1241 12.2081 11.7202 13.6619 9.99987 13.6619ZM15.0038 4.08464C14.3827 4.08464 13.8811 4.60404 13.8811 5.24721C13.8811 5.89039 14.3827 6.40978 15.0038 6.40978C15.6249 6.40978 16.1264 5.89281 16.1264 5.24721C16.1266 5.09449 16.0977 4.94323 16.0413 4.80209C15.985 4.66095 15.9023 4.53272 15.798 4.42472C15.6937 4.31673 15.5699 4.23111 15.4336 4.17275C15.2973 4.11439 15.1513 4.08445 15.0038 4.08464ZM19.3702 10.4266C19.3702 9.08684 19.3819 7.75923 19.3092 6.42192C19.2366 4.86859 18.8944 3.49001 17.7975 2.35414C16.6983 1.21584 15.3694 0.863919 13.8694 0.788679C12.5756 0.71344 11.2936 0.725575 10.0022 0.725575C8.70846 0.725575 7.42643 0.71344 6.13502 0.788679C4.63502 0.863919 3.30377 1.21827 2.2069 2.35414C1.10768 3.49244 0.767836 4.86859 0.69518 6.42192C0.622523 7.76166 0.634242 9.08927 0.634242 10.4266C0.634242 11.7639 0.622523 13.0939 0.69518 14.4313C0.767836 15.9846 1.11002 17.3632 2.2069 18.499C3.30612 19.6373 4.63502 19.9893 6.13502 20.0645C7.42877 20.1397 8.7108 20.1276 10.0022 20.1276C11.296 20.1276 12.578 20.1397 13.8694 20.0645C15.3694 19.9893 16.7006 19.6349 17.7975 18.499C18.8967 17.3607 19.2366 15.9846 19.3092 14.4313C19.3842 13.0939 19.3702 11.7663 19.3702 10.4266ZM17.3077 16.1496C17.1366 16.5913 16.9303 16.9214 16.5999 17.2612C16.2694 17.6034 15.953 17.817 15.5264 17.9942C14.2936 18.5015 11.3663 18.3874 9.99987 18.3874C8.63346 18.3874 5.70377 18.5015 4.47096 17.9966C4.0444 17.8195 3.72565 17.6059 3.39752 17.2636C3.06705 16.9214 2.8608 16.5938 2.68971 16.1521C2.20221 14.873 2.31237 11.8416 2.31237 10.4266C2.31237 9.0116 2.20221 5.97776 2.68971 4.70112C2.8608 4.25939 3.06705 3.92931 3.39752 3.58952C3.72799 3.24973 4.0444 3.03372 4.47096 2.85655C5.70377 2.35171 8.63346 2.46579 9.99987 2.46579C11.3663 2.46579 14.296 2.35171 15.5288 2.85655C15.9553 3.03372 16.2741 3.2473 16.6022 3.58952C16.9327 3.93174 17.1389 4.25939 17.31 4.70112C17.7975 5.97776 17.6874 9.0116 17.6874 10.4266C17.6874 11.8416 17.7975 14.873 17.3077 16.1496Z" fill="#F5F4F4"/>
</svg>
