<svg width="19" height="17" viewBox="0 0 19 17" fill="none" xmlns="http://www.w3.org/2000/svg">
<path d="M5.52328 16.8024H5.44328C3.83164 16.7879 2.2433 16.4061 0.793275 15.6846C0.526549 15.5561 0.306933 15.3434 0.166579 15.0777C0.0262241 14.8119 -0.0274987 14.5071 0.0132749 14.2078C0.0576193 13.9065 0.193662 13.6272 0.401981 13.4099C0.6103 13.1926 0.880245 13.0483 1.17327 12.9977C2.07189 12.8747 2.93636 12.5641 3.71328 12.0849C2.36444 11.0034 1.32603 9.56784 0.708094 7.93031C0.0901613 6.29277 -0.0842737 4.51429 0.203275 2.78335C0.242263 2.50918 0.357239 2.25226 0.534523 2.04318C0.711806 1.8341 0.943931 1.68165 1.20328 1.60399C1.45559 1.52272 1.72562 1.51925 1.97984 1.594C2.23407 1.66875 2.46128 1.81843 2.63328 2.02446C3.21728 2.80979 3.95117 3.46488 4.79018 3.94976C5.62919 4.43463 6.55573 4.73913 7.51328 4.84467C7.55901 3.63644 8.06531 2.49488 8.92328 1.66552C9.35168 1.24482 9.85744 0.915763 10.4111 0.697526C10.9647 0.47929 11.5552 0.376237 12.1481 0.394372C12.741 0.412507 13.3244 0.551469 13.8644 0.803158C14.4043 1.05485 14.8901 1.41423 15.2933 1.86037C15.3983 1.95561 15.5288 2.0163 15.6679 2.03459C15.807 2.05287 15.9482 2.02791 16.0733 1.96292C16.3117 1.8476 16.5772 1.80419 16.8388 1.83775C17.1004 1.87132 17.3472 1.98047 17.5506 2.15249C17.754 2.3245 17.9055 2.55228 17.9874 2.80925C18.0693 3.06622 18.0783 3.34178 18.0133 3.60378C17.7826 4.57815 17.3456 5.4885 16.7333 6.27016C16.5983 9.18755 15.3441 11.9319 13.2442 13.9049C11.1443 15.8778 8.36894 16.9194 5.52328 16.8024ZM5.52328 14.7513H5.60328C6.76594 14.7923 7.92499 14.5963 9.01321 14.1744C10.1014 13.7526 11.0972 13.1135 11.9427 12.294C12.7883 11.4746 13.4668 10.4912 13.9389 9.4008C14.4111 8.31042 14.6675 7.13476 14.6933 5.94199C14.7098 5.61511 14.8412 5.30543 15.0633 5.07029C15.3072 4.75365 15.5152 4.4096 15.6833 4.04476C15.323 4.04546 14.9667 3.96818 14.6376 3.81797C14.3084 3.66776 14.0139 3.44799 13.7733 3.17305C13.5419 2.93775 13.267 2.75215 12.9648 2.62712C12.6626 2.5021 12.3391 2.44016 12.0133 2.44492C11.6842 2.4362 11.3566 2.49422 11.0495 2.61565C10.7423 2.73708 10.4615 2.91954 10.2233 3.15254C9.90186 3.46533 9.66618 3.8592 9.53982 4.29475C9.41347 4.73029 9.40086 5.19223 9.50328 5.63433L9.76328 6.80344L8.59328 6.88548C7.39437 6.98574 6.18854 6.81756 5.05929 6.39257C3.93004 5.96759 2.90436 5.29596 2.05328 4.4242C2.01677 5.77421 2.34608 7.10815 3.00457 8.27772C3.66306 9.44729 4.62495 10.4067 5.78328 11.0492L6.73328 11.6029L6.10328 12.5259C5.42197 13.4423 4.48846 14.1281 3.42328 14.4949C4.10659 14.6706 4.80885 14.7567 5.51328 14.7513H5.52328Z" fill="white"/>
</svg>
