<svg width="20" height="21" viewBox="0 0 20 21" fill="none" xmlns="http://www.w3.org/2000/svg">
<path d="M18 21H16.33C15.7996 21 15.2909 20.7893 14.9158 20.4142C14.5407 20.0391 14.33 19.5304 14.33 19V13.63C14.3389 13.4194 14.2753 13.2121 14.1497 13.0428C14.0241 12.8735 13.8442 12.7525 13.64 12.7C13.5212 12.6819 13.4 12.6895 13.2844 12.7223C13.1688 12.7551 13.0616 12.8123 12.97 12.89C12.8757 12.97 12.8 13.0696 12.7482 13.1819C12.6964 13.2941 12.6697 13.4164 12.67 13.54V19C12.67 19.5304 12.4593 20.0391 12.0842 20.4142C11.7091 20.7893 11.2004 21 10.67 21H9C8.46957 21 7.96086 20.7893 7.58579 20.4142C7.21072 20.0391 7 19.5304 7 19V13.54C7 11.8161 7.68482 10.1628 8.90381 8.94381C10.1228 7.72482 11.7761 7.04 13.5 7.04C15.2239 7.04 16.8772 7.72482 18.0962 8.94381C19.3152 10.1628 20 11.8161 20 13.54V19C20 19.5304 19.7893 20.0391 19.4142 20.4142C19.0391 20.7893 18.5304 21 18 21ZM13.5 10.69C13.6565 10.6801 13.8135 10.6801 13.97 10.69C14.6414 10.8191 15.2458 11.1806 15.6774 11.7108C16.1089 12.2411 16.34 12.9064 16.33 13.59V19H18V13.54C18 12.3465 17.5259 11.2019 16.682 10.358C15.8381 9.51411 14.6935 9.04 13.5 9.04C12.3065 9.04 11.1619 9.51411 10.318 10.358C9.47411 11.2019 9 12.3465 9 13.54V19H10.67V13.54C10.67 12.7876 10.9675 12.0657 11.4977 11.5318C12.0278 10.9979 12.7476 10.6953 13.5 10.69ZM4 21H2C1.46957 21 0.96086 20.7893 0.585788 20.4142C0.210715 20.0391 1.37992e-06 19.5304 1.37992e-06 19V9C1.37992e-06 8.46957 0.210715 7.96086 0.585788 7.58579C0.96086 7.21072 1.46957 7 2 7H4C4.53043 7 5.03914 7.21072 5.41422 7.58579C5.78929 7.96086 6 8.46957 6 9V19C6 19.5304 5.78929 20.0391 5.41422 20.4142C5.03914 20.7893 4.53043 21 4 21ZM2 9V19H4V9H2ZM3 6C2.40666 6 1.82664 5.82405 1.33329 5.49441C0.839943 5.16477 0.455426 4.69623 0.228363 4.14805C0.00129986 3.59987 -0.0581102 2.99667 0.0576455 2.41473C0.173401 1.83279 0.459124 1.29824 0.878681 0.878681C1.29824 0.459123 1.83279 0.173401 2.41473 0.0576455C2.99667 -0.0581102 3.59987 0.00129986 4.14805 0.228363C4.69623 0.455426 5.16477 0.839943 5.49441 1.33329C5.82405 1.82664 6 2.40666 6 3C6 3.79565 5.68393 4.55871 5.12132 5.12132C4.55871 5.68393 3.79565 6 3 6ZM3 2C2.80222 2 2.60888 2.05865 2.44443 2.16853C2.27998 2.27841 2.15181 2.43459 2.07612 2.61732C2.00043 2.80004 1.98063 3.00111 2.01922 3.19509C2.0578 3.38907 2.15304 3.56726 2.29289 3.70711C2.43275 3.84696 2.61093 3.9422 2.80491 3.98079C2.99889 4.01937 3.19996 3.99957 3.38268 3.92388C3.56541 3.84819 3.72159 3.72002 3.83147 3.55557C3.94135 3.39112 4 3.19778 4 3C4 2.73478 3.89464 2.48043 3.70711 2.29289C3.51957 2.10536 3.26522 2 3 2Z" fill="white"/>
</svg>
