<svg width="39" height="38" viewBox="0 0 39 38" fill="none" xmlns="http://www.w3.org/2000/svg">
<path d="M37.44 0H1.56C0.697125 0 0 0.67925 0 1.52V36.48C0 37.3208 0.697125 38 1.56 38H37.44C38.3029 38 39 37.3208 39 36.48V1.52C39 0.67925 38.3029 0 37.44 0ZM32.9355 11.0912H29.8204C27.378 11.0912 26.9051 12.2217 26.9051 13.8842V17.5465H32.7356L31.9751 23.2797H26.9051V38H20.826V23.2845H15.7414V17.5465H20.826V13.319C20.826 8.41225 23.9021 5.738 28.3969 5.738C30.5516 5.738 32.3993 5.89475 32.9404 5.966V11.0912H32.9355Z" fill="#45A29E"/>
</svg>
