<svg width="32" height="33" viewBox="0 0 32 33" fill="none" xmlns="http://www.w3.org/2000/svg">
<path d="M12.2805 32.5845L19.313 19.7851L24.8537 29.8706C22.1863 31.8942 18.979 32.9807 15.6893 32.9752C14.5191 32.9752 13.3786 32.84 12.2805 32.5845ZM9.24194 31.5243C7.22647 30.5666 5.42583 29.1729 3.95753 27.4342C2.48924 25.6955 1.38631 23.6509 0.720742 21.4339H14.7842L9.24194 31.5227V31.5243ZM0.0807112 18.1364C-0.143779 15.8236 0.101324 13.4871 0.799819 11.2812C1.49831 9.07538 2.63429 7.05048 4.13267 5.34035L11.1589 18.1364H0.0807112ZM6.52652 3.10463C9.1935 1.08141 12.4002 -0.00510914 15.6893 1.8063e-05C16.8596 1.8063e-05 18 0.135216 19.0981 0.390774L12.0656 13.1901L6.52652 3.10463ZM22.1367 1.45093C24.1522 2.40867 25.9528 3.80236 27.4211 5.54105C28.8894 7.27973 29.9923 9.32432 30.6579 11.5413H16.5945L22.1367 1.45258V1.45093ZM31.2979 14.8389C31.5224 17.1517 31.2773 19.4882 30.5788 21.694C29.8803 23.8999 28.7443 25.9248 27.246 27.6349L20.2197 14.8389H31.3011H31.2979Z" fill="white"/>
</svg>
