<svg width="28" height="29" viewBox="0 0 28 29" fill="none" xmlns="http://www.w3.org/2000/svg">
<path d="M1.82643 1.94434C-0.36758 4.22327 0.0814593 6.64413 0.0814593 13.9986C0.0814593 20.106 -0.984137 26.2285 4.59279 27.6699C6.33428 28.1178 21.7645 28.1178 23.5036 27.6676C25.8256 27.0684 27.7148 25.185 27.9731 21.901C28.0092 21.4427 28.0092 6.5627 27.9719 6.09504C27.6974 2.59696 25.5441 0.580932 22.7068 0.172609C22.0565 0.0783801 21.9262 0.0504605 18.5898 0.0446439C6.7554 0.0504605 4.1612 -0.476521 1.82643 1.94434V1.94434Z" fill="url(#paint0_linear)"/>
<path d="M14.0389 3.69623C9.81491 3.69623 5.8038 3.32048 4.27172 7.25248C3.63887 8.87647 3.73078 10.9856 3.73078 14.0055C3.73078 16.6556 3.64585 19.1462 4.27172 20.7574C5.80031 24.6917 9.84399 24.3148 14.0366 24.3148C18.0814 24.3148 22.2519 24.7359 23.8026 20.7574C24.4366 19.1171 24.3436 17.0395 24.3436 14.0055C24.3436 9.97813 24.5657 7.37812 22.6125 5.42608C20.6349 3.44844 17.9604 3.69623 14.0343 3.69623H14.0389ZM13.1152 5.55404C21.9262 5.54008 23.0476 4.56057 22.4287 18.1679C22.2089 22.9805 18.5444 22.4524 14.0401 22.4524C5.82707 22.4524 5.59092 22.2174 5.59092 14.0009C5.59092 5.68899 6.24237 5.5587 13.1152 5.55172V5.55404ZM19.5414 7.26528C18.8585 7.26528 18.3048 7.81902 18.3048 8.50188C18.3048 9.18475 18.8585 9.73849 19.5414 9.73849C20.2243 9.73849 20.778 9.18475 20.778 8.50188C20.778 7.81902 20.2243 7.26528 19.5414 7.26528V7.26528ZM14.0389 8.71128C11.1155 8.71128 8.74583 11.0821 8.74583 14.0055C8.74583 16.9289 11.1155 19.2986 14.0389 19.2986C16.9623 19.2986 19.3308 16.9289 19.3308 14.0055C19.3308 11.0821 16.9623 8.71128 14.0389 8.71128V8.71128ZM14.0389 10.5691C18.5817 10.5691 18.5875 17.442 14.0389 17.442C9.49733 17.442 9.49035 10.5691 14.0389 10.5691Z" fill="white"/>
<defs>
<linearGradient id="paint0_linear" x1="1.87997" y1="26.1809" x2="27.8282" y2="3.72302" gradientUnits="userSpaceOnUse">
<stop stop-color="#FFDD55"/>
<stop offset="0.5" stop-color="#FF543E"/>
<stop offset="1" stop-color="#C837AB"/>
</linearGradient>
</defs>
</svg>
