<svg width="39" height="38" viewBox="0 0 39 38" fill="none" xmlns="http://www.w3.org/2000/svg">
<path d="M19.4948 9.25116C13.958 9.25116 9.48956 13.6051 9.48956 19C9.48956 24.3949 13.958 28.7488 19.4948 28.7488C25.0315 28.7488 29.5 24.3949 29.5 19C29.5 13.6051 25.0315 9.25116 19.4948 9.25116ZM19.4948 25.336C15.9142 25.336 12.9921 22.4889 12.9921 19C12.9921 15.5111 15.9142 12.664 19.4948 12.664C23.0754 12.664 25.9974 15.5111 25.9974 19C25.9974 22.4889 23.0754 25.336 19.4948 25.336ZM29.9097 6.57986C28.617 6.57986 27.5731 7.59705 27.5731 8.85665C27.5731 10.1162 28.617 11.1334 29.9097 11.1334C31.2025 11.1334 32.2464 10.121 32.2464 8.85665C32.2468 8.55755 32.1866 8.26132 32.0693 7.98491C31.952 7.70851 31.7799 7.45737 31.5629 7.24588C31.3458 7.03438 31.0881 6.86669 30.8044 6.7524C30.5207 6.63812 30.2167 6.57948 29.9097 6.57986ZM38.9978 19C38.9978 16.3762 39.0222 13.7762 38.871 11.1572C38.7198 8.11515 38.0075 5.41532 35.7245 3.19082C33.4367 0.961562 30.6707 0.272347 27.5487 0.124997C24.8559 -0.0223523 22.1875 0.00141382 19.4996 0.00141382C16.8069 0.00141382 14.1385 -0.0223523 11.4506 0.124997C8.32855 0.272347 5.55773 0.966316 3.27473 3.19082C0.986848 5.42007 0.279509 8.11515 0.128284 11.1572C-0.0229401 13.781 0.00145099 16.381 0.00145099 19C0.00145099 21.619 -0.0229401 24.2238 0.128284 26.8428C0.279509 29.8849 0.991727 32.5847 3.27473 34.8092C5.5626 37.0384 8.32855 37.7277 11.4506 37.875C14.1434 38.0224 16.8117 37.9986 19.4996 37.9986C22.1924 37.9986 24.8608 38.0224 27.5487 37.875C30.6707 37.7277 33.4416 37.0337 35.7245 34.8092C38.0124 32.5799 38.7198 29.8849 38.871 26.8428C39.0271 24.2238 38.9978 21.6238 38.9978 19ZM34.705 30.2081C34.3489 31.0732 33.9196 31.7196 33.2318 32.385C32.544 33.0552 31.8854 33.4735 30.9976 33.8205C28.4316 34.8139 22.3388 34.5905 19.4948 34.5905C16.6508 34.5905 10.553 34.8139 7.98707 33.8253C7.09924 33.4783 6.4358 33.06 5.75286 32.3898C5.06503 31.7196 4.63575 31.0779 4.27964 30.2128C3.26497 27.7079 3.49425 21.7711 3.49425 19C3.49425 16.2289 3.26497 10.2874 4.27964 7.78717C4.63575 6.92209 5.06503 6.27565 5.75286 5.6102C6.44068 4.94475 7.09924 4.52172 7.98707 4.17473C10.553 3.18607 16.6508 3.40947 19.4948 3.40947C22.3388 3.40947 28.4365 3.18607 31.0024 4.17473C31.8903 4.52172 32.5537 4.94 33.2367 5.6102C33.9245 6.28041 34.3538 6.92209 34.7099 7.78717C35.7246 10.2874 35.4953 16.2289 35.4953 19C35.4953 21.7711 35.7245 27.7079 34.705 30.2081Z" fill="#45A29E"/>
</svg>
