<svg width="41" height="39" viewBox="0 0 41 39" fill="none" xmlns="http://www.w3.org/2000/svg">
<path d="M16.046 38.5378L25.2348 23.4L32.4744 35.3281C28.9891 37.7214 24.7983 39.0065 20.5 39C18.9709 39 17.4808 38.8401 16.046 38.5378ZM12.0757 37.284C9.44227 36.1513 7.0895 34.5029 5.171 32.4466C3.2525 30.3902 1.81139 27.9721 0.941738 25.35H19.3173L12.0757 37.282V37.284ZM0.105459 21.45C-0.187865 18.7146 0.132392 15.9512 1.04506 13.3424C1.95773 10.7335 3.44203 8.33864 5.39984 6.31606L14.5805 21.45H0.105459ZM8.52769 3.67187C12.0124 1.27899 16.2024 -0.00604261 20.5 2.13632e-05C22.0291 2.13632e-05 23.5192 0.159921 24.954 0.462171L15.7652 15.6L8.52769 3.67187ZM28.9243 1.71602C31.5577 2.84874 33.9105 4.49707 35.829 6.55342C37.7475 8.60977 39.1886 11.0279 40.0583 13.65H21.6827L28.9243 1.71797V1.71602ZM40.8945 17.55C41.1879 20.2854 40.8676 23.0488 39.9549 25.6576C39.0423 28.2665 37.558 30.6614 35.6002 32.6839L26.4195 17.55H40.8986H40.8945Z" fill="#66FCF1"/>
</svg>
