<svg width="46" height="48" viewBox="0 0 46 48" fill="none" xmlns="http://www.w3.org/2000/svg">
<path d="M17.6712 47.4377L27.7906 29.02L35.7634 43.5326C31.9251 46.4444 27.3099 48.0079 22.5763 48C20.8923 48 19.2513 47.8055 17.6712 47.4377ZM13.2988 45.9122C10.3986 44.5341 7.80754 42.5286 5.69472 40.0267C3.58191 37.5248 1.99485 34.5827 1.03712 31.3925H21.2738L13.2988 45.9098V45.9122ZM0.11614 26.6475C-0.206892 23.3195 0.145801 19.9574 1.15091 16.7833C2.15601 13.6091 3.79064 10.6954 5.94674 8.23459L16.0572 26.6475H0.11614ZM9.39138 5.01749C13.2291 2.10615 17.8434 0.542697 22.5763 0.550075C24.2602 0.550075 25.9013 0.74462 27.4814 1.11236L17.3619 19.5301L9.39138 5.01749ZM31.8538 2.63787C34.7539 4.01602 37.345 6.02149 39.4578 8.52338C41.5706 11.0253 43.1577 13.9673 44.1154 17.1576H23.8787L31.8538 2.64024V2.63787ZM45.0364 21.9025C45.3594 25.2306 45.0067 28.5927 44.0016 31.7668C42.9965 34.9409 41.3619 37.8547 39.2058 40.3155L29.0953 21.9025H45.0409H45.0364Z" fill="#45A29E"/>
</svg>
