<svg width="28" height="23" viewBox="0 0 28 23" fill="none" xmlns="http://www.w3.org/2000/svg">
<path d="M8.80576 22.7558C19.3724 22.7558 25.1507 14.0017 25.1507 6.41083C25.1507 6.16217 25.1456 5.91458 25.1345 5.66827C26.256 4.85736 27.231 3.84543 28 2.69357C26.9708 3.15115 25.8629 3.45898 24.701 3.59805C25.8871 2.88669 26.7977 1.76175 27.2271 0.420624C26.1171 1.07858 24.8879 1.55667 23.5793 1.81494C22.531 0.698334 21.0385 0 19.3859 0C16.2136 0 13.6409 2.57266 13.6409 5.7439C13.6409 6.19485 13.6913 6.63321 13.7898 7.05383C9.01532 6.81351 4.78152 4.52774 1.94846 1.05167C1.4552 1.9006 1.17065 2.8869 1.17065 3.93921C1.17065 5.9321 2.18494 7.69171 3.72708 8.72095C2.78458 8.69189 1.89932 8.4332 1.12537 8.00253C1.12451 8.02667 1.12451 8.05017 1.12451 8.07581C1.12451 10.858 3.10458 13.181 5.73343 13.7073C5.25064 13.8387 4.74265 13.9094 4.21863 13.9094C3.84906 13.9094 3.48889 13.8731 3.13876 13.8058C3.87021 16.0884 5.99106 17.7493 8.5054 17.7959C6.53922 19.3369 4.06226 20.2549 1.37039 20.2549C0.907257 20.2549 0.449677 20.2284 0 20.1754C2.54233 21.8049 5.56146 22.756 8.80597 22.756" fill="#1DA1F2"/>
</svg>
