<svg width="42" height="41" viewBox="0 0 42 41" fill="none" xmlns="http://www.w3.org/2000/svg">
<path d="M21 0C9.40313 0 0 9.17924 0 20.5C0 31.8208 9.40313 41 21 41C32.5969 41 42 31.8208 42 20.5C42 9.17924 32.5969 0 21 0ZM31.0922 15.4528C31.1062 15.6679 31.1062 15.8921 31.1062 16.1117C31.1062 22.8291 25.8656 30.567 16.2891 30.567C13.3359 30.567 10.5984 29.7296 8.29219 28.2882C8.71406 28.3339 9.11719 28.3522 9.54844 28.3522C11.9859 28.3522 14.2266 27.5469 16.0125 26.1833C13.725 26.1375 11.8031 24.6732 11.1469 22.6598C11.9484 22.7742 12.6703 22.7742 13.4953 22.5683C12.3175 22.3347 11.2588 21.7102 10.4991 20.801C9.73949 19.8918 9.32572 18.7539 9.32812 17.5806V17.5165C10.0172 17.8963 10.8281 18.1297 11.6766 18.1617C10.9633 17.6977 10.3784 17.069 9.97365 16.3315C9.5689 15.594 9.35683 14.7703 9.35625 13.9336C9.35625 12.9864 9.60938 12.1215 10.0641 11.3711C11.3714 12.9422 13.0028 14.2271 14.8522 15.1424C16.7016 16.0577 18.7275 16.5828 20.7984 16.6837C20.0625 13.2289 22.7063 10.433 25.8844 10.433C27.3844 10.433 28.7344 11.0462 29.6859 12.0346C30.8625 11.8195 31.9875 11.3894 32.9906 10.8128C32.6016 11.9888 31.7859 12.9818 30.7031 13.6087C31.7531 13.4989 32.7656 13.2152 33.7031 12.8171C32.9953 13.8329 32.1094 14.7344 31.0922 15.4528Z" fill="white"/>
</svg>
