<svg width="28" height="20" viewBox="0 0 28 20" fill="none" xmlns="http://www.w3.org/2000/svg">
<path d="M27.4231 3.06761C27.1003 1.86813 26.1546 0.922634 24.9553 0.599637C22.7642 0 13.9997 0 13.9997 0C13.9997 0 5.23545 0 3.04433 0.57678C1.86813 0.899563 0.899349 1.86834 0.576566 3.06761C0 5.25852 0 9.80227 0 9.80227C0 9.80227 0 14.3689 0.576566 16.5369C0.899563 17.7362 1.84505 18.6819 3.04454 19.0049C5.25852 19.6045 13.9999 19.6045 13.9999 19.6045C13.9999 19.6045 22.7642 19.6045 24.9553 19.0278C26.1548 18.705 27.1003 17.7593 27.4233 16.56C27.9999 14.3689 27.9999 9.82534 27.9999 9.82534C27.9999 9.82534 28.023 5.25852 27.4231 3.06761Z" fill="#FF0000"/>
<path d="M11.2092 13.9999L18.4974 9.80219L11.2092 5.60449V13.9999Z" fill="white"/>
</svg>
