<svg width="22" height="23" viewBox="0 0 22 23" fill="none" xmlns="http://www.w3.org/2000/svg">
<path d="M10.9915 6.30762C9.49329 6.30762 8.05644 6.90278 6.99704 7.96218C5.93763 9.02159 5.34247 10.4584 5.34247 11.9567C5.34247 13.4549 5.93763 14.8917 6.99704 15.9511C8.05644 17.0105 9.49329 17.6057 10.9915 17.6057C12.4897 17.6057 13.9266 17.0105 14.986 15.9511C16.0454 14.8917 16.6406 13.4549 16.6406 11.9567C16.6406 10.4584 16.0454 9.02159 14.986 7.96218C13.9266 6.90278 12.4897 6.30762 10.9915 6.30762ZM10.9915 15.6254C10.0182 15.6254 9.08473 15.2387 8.39648 14.5505C7.70824 13.8622 7.32159 12.9288 7.32159 11.9554C7.32159 10.9821 7.70824 10.0487 8.39648 9.36041C9.08473 8.67217 10.0182 8.28552 10.9915 8.28552C11.9648 8.28552 12.8983 8.67217 13.5865 9.36041C14.2748 10.0487 14.6614 10.9821 14.6614 11.9554C14.6614 12.9288 14.2748 13.8622 13.5865 14.5505C12.8983 15.2387 11.9648 15.6254 10.9915 15.6254Z" fill="white"/>
<path d="M16.8642 7.41617C17.5915 7.41617 18.1811 6.82654 18.1811 6.0992C18.1811 5.37185 17.5915 4.78223 16.8642 4.78223C16.1368 4.78223 15.5472 5.37185 15.5472 6.0992C15.5472 6.82654 16.1368 7.41617 16.8642 7.41617Z" fill="white"/>
<path d="M21.4173 4.76036C21.1344 4.03001 20.7022 3.36677 20.1483 2.81307C19.5944 2.25938 18.931 1.82744 18.2006 1.5449C17.3458 1.22403 16.4428 1.05053 15.53 1.03179C14.3535 0.98048 13.9809 0.96582 10.9976 0.96582C8.01422 0.96582 7.63183 0.96582 6.46513 1.03179C5.55301 1.04957 4.65064 1.22311 3.79698 1.5449C3.06634 1.82711 2.40276 2.25893 1.84881 2.81267C1.29486 3.3664 0.862785 4.02982 0.580298 4.76036C0.259368 5.61506 0.0862683 6.51815 0.068414 7.43095C0.0158818 8.6062 0 8.97881 0 11.9634C0 14.9467 -9.10222e-09 15.3267 0.068414 16.4958C0.0867392 17.4096 0.258996 18.3112 0.580298 19.1676C0.863578 19.8979 1.29607 20.561 1.85016 21.1147C2.40424 21.6684 3.06771 22.1004 3.7982 22.3831C4.65024 22.7168 5.55299 22.9028 6.46757 22.9328C7.64405 22.9841 8.01666 23 11 23C13.9833 23 14.3657 23 15.5324 22.9328C16.4452 22.9143 17.3481 22.7412 18.203 22.421C18.9333 22.1378 19.5965 21.7054 20.1503 21.1516C20.7042 20.5977 21.1365 19.9345 21.4197 19.2043C21.741 18.3491 21.9133 17.4475 21.9316 16.5337C21.9841 15.3584 22 14.9858 22 12.0012C22 9.01669 22 8.63797 21.9316 7.46882C21.9174 6.54312 21.7434 5.62683 21.4173 4.76036ZM19.9293 16.4054C19.9214 17.1095 19.7929 17.807 19.5493 18.4676C19.3658 18.9427 19.085 19.3741 18.7248 19.7341C18.3646 20.0941 17.933 20.3747 17.4578 20.5579C16.8045 20.8003 16.1144 20.9288 15.4176 20.9378C14.257 20.9916 13.9296 21.005 10.9536 21.005C7.97512 21.005 7.67092 21.005 6.48834 20.9378C5.79189 20.9293 5.10213 20.8008 4.44936 20.5579C3.97252 20.3758 3.53921 20.0957 3.17745 19.7356C2.8157 19.3756 2.53356 18.9436 2.34929 18.4676C2.10916 17.8141 1.98072 17.1248 1.96935 16.4286C1.91681 15.268 1.9046 14.9406 1.9046 11.9646C1.9046 8.98737 1.9046 8.68317 1.96935 7.49936C1.97724 6.7957 2.10575 6.09861 2.34929 5.43839C2.7219 4.47448 3.48545 3.71582 4.44936 3.34687C5.10245 3.10515 5.79201 2.97666 6.48834 2.96693C7.65016 2.9144 7.97635 2.89974 10.9536 2.89974C13.9308 2.89974 14.2362 2.89974 15.4176 2.96693C16.1145 2.97531 16.8046 3.10385 17.4578 3.34687C17.9329 3.53046 18.3645 3.81136 18.7246 4.17154C19.0848 4.53173 19.3657 4.96324 19.5493 5.43839C19.7894 6.09192 19.9179 6.78121 19.9293 7.47737C19.9818 8.63919 19.9952 8.96538 19.9952 11.9426C19.9952 14.9186 19.9952 15.2387 19.9427 16.4066H19.9293V16.4054Z" fill="white"/>
</svg>
