<svg width="36" height="35" viewBox="0 0 36 35" fill="none" xmlns="http://www.w3.org/2000/svg">
<g clip-path="url(#clip0)">
<path d="M34.5139 6.33004C33.7368 6.67488 32.9301 6.94692 32.1024 7.14387C33.0145 6.27654 33.7002 5.19169 34.0871 3.98081C34.1976 3.63512 33.8223 3.3362 33.5104 3.52129C32.3589 4.20481 31.1185 4.71758 29.8236 5.04552C29.7484 5.06455 29.6709 5.07419 29.5932 5.07419C29.3573 5.07419 29.128 4.98655 28.9476 4.82749C27.5699 3.61242 25.798 2.94324 23.9584 2.94324C23.1624 2.94324 22.3587 3.0674 21.5695 3.31231C19.1245 4.07118 17.238 6.0894 16.6461 8.57944C16.4241 9.51341 16.364 10.4482 16.4673 11.3579C16.4792 11.4624 16.4298 11.5354 16.3993 11.5696C16.3459 11.6296 16.2701 11.664 16.1914 11.664C16.1826 11.664 16.1735 11.6636 16.1646 11.6627C10.8126 11.1651 5.9864 8.5849 2.575 4.39741C2.40104 4.18382 2.06745 4.21001 1.92879 4.44801C1.26075 5.59489 0.907714 6.90664 0.907714 8.24143C0.907714 10.287 1.72899 12.2148 3.15555 13.6202C2.55564 13.4778 1.97501 13.2537 1.43565 12.9539C1.17471 12.8088 0.85365 12.9953 0.849984 13.2939C0.812633 16.3328 2.5906 19.0369 5.25406 20.2545C5.20043 20.2558 5.14679 20.2564 5.09307 20.2564C4.67087 20.2564 4.24339 20.2156 3.82265 20.1351C3.52879 20.079 3.28192 20.358 3.37317 20.643C4.23768 23.3439 6.56158 25.3348 9.34254 25.7868C7.03451 27.3372 4.34674 28.1551 1.54932 28.1551L0.677218 28.1545C0.408518 28.1545 0.181262 28.3298 0.112787 28.5903C0.0453345 28.8468 0.169579 29.1174 0.398712 29.2507C3.55096 31.0865 7.14656 32.0568 10.7983 32.0568C13.9949 32.0568 16.9849 31.422 19.6856 30.1701C22.1613 29.0225 24.3491 27.3819 26.1882 25.2941C27.9013 23.3491 29.241 21.1039 30.1698 18.6209C31.0552 16.254 31.5232 13.7285 31.5232 11.3173V11.2024C31.5231 10.8153 31.6981 10.451 32.0034 10.203C33.1618 9.26176 34.1706 8.15379 35.0016 6.90988C35.221 6.58144 34.875 6.16979 34.5139 6.33004Z" fill="#282E2E"/>
</g>
<defs>
<clipPath id="clip0">
<rect width="34.9757" height="35" fill="white" transform="translate(0.0944824)"/>
</clipPath>
</defs>
</svg>
