<svg width="34" height="33" viewBox="0 0 34 33" fill="none" xmlns="http://www.w3.org/2000/svg">
<g clip-path="url(#clip0)">
<path d="M26.7807 0.376261C25.5737 -0.272112 22.7659 -0.0736693 19.4655 0.903081C16.9581 2.92742 8.7974 10.2058 8.7008 19.2563C8.69303 19.9877 7.69528 20.1922 7.40659 19.5202C6.62934 17.7109 5.99773 14.6909 6.8507 10.0488C6.97683 9.36217 6.10556 8.95907 5.66337 9.49902C5.3663 9.86178 5.08451 10.2344 4.8199 10.6167C-0.384376 18.1361 3.33672 27.7736 9.46061 31.1232C15.5845 34.473 24.6865 33.7268 29.0706 25.7008C33.4548 17.675 29.8343 2.0165 26.7807 0.376261Z" fill="#282E2E"/>
</g>
<defs>
<clipPath id="clip0">
<rect width="32.9771" height="33" fill="white" transform="translate(0.238037)"/>
</clipPath>
</defs>
</svg>
