<svg width="37" height="36" viewBox="0 0 37 36" fill="none" xmlns="http://www.w3.org/2000/svg">
<g clip-path="url(#clip0)">
<path d="M18.1804 0C8.24613 0 0.192871 8.05885 0.192871 18C0.192871 27.9411 8.24613 36 18.1804 36C28.1146 36 36.1679 27.9411 36.1679 18C36.1679 8.05885 28.1145 0 18.1804 0ZM32.7269 16.7056C30.8176 16.6288 27.2048 16.6269 23.0993 17.3452C22.7285 16.4555 22.3497 15.6022 21.969 14.788C22.2068 14.6769 22.4426 14.564 22.674 14.4474C25.4938 13.0253 27.8355 11.1857 29.6605 8.96504C31.42 11.1947 32.4795 13.8657 32.7269 16.7056ZM27.2588 6.55173C25.5554 8.72311 23.2848 10.4664 20.4641 11.7694C20.1468 11.171 19.8341 10.6019 19.5306 10.0677C17.978 7.33526 16.4965 5.16057 15.3882 3.65192C16.2987 3.47653 17.2325 3.38604 18.1804 3.38604C21.5189 3.38604 24.6858 4.50038 27.2588 6.55173ZM7.85388 7.66633C9.07226 6.4471 10.4682 5.47031 11.9832 4.75907C13.0467 6.14125 14.7984 8.57962 16.6337 11.82C16.8435 12.1904 17.0582 12.5795 17.2755 12.9827C15.8653 13.4189 14.351 13.7702 12.7324 14.0339C9.10119 14.6256 5.82865 14.6077 3.99072 14.5236C4.6156 11.9492 5.93423 9.58739 7.85388 7.66633ZM3.57656 18C3.57656 17.9654 3.57757 17.9308 3.57783 17.8963C4.20186 17.9296 4.9961 17.9568 5.92196 17.9568C7.87807 17.9568 10.422 17.8349 13.189 17.3902C15.1851 17.0693 17.0663 16.6164 18.8173 16.0364C19.1268 16.6927 19.4354 17.3765 19.7395 18.0862C17.4966 18.6899 15.4375 19.4797 13.5907 20.4474C10.594 22.0177 8.15299 24.058 6.31523 26.524C4.53685 24.0563 3.57656 21.1022 3.57656 18ZM8.65116 29.0753C11.2208 25.3093 15.3633 22.6857 20.9933 21.2542C22.1225 24.3611 23.0886 27.8353 23.6456 31.5595C21.9317 32.251 20.084 32.614 18.1804 32.614C14.6444 32.614 11.3002 31.3649 8.65116 29.0753ZM28.5068 28.3336C27.9678 28.873 27.3937 29.3642 26.7903 29.8069C26.2125 26.4985 25.3435 23.3959 24.3427 20.571C27.8897 20.0144 31.0105 20.0282 32.6357 20.0933C32.1927 23.2026 30.7657 26.0732 28.5068 28.3336Z" fill="#282E2E"/>
</g>
<defs>
<clipPath id="clip0">
<rect width="35.975" height="36" fill="white" transform="translate(0.192871)"/>
</clipPath>
</defs>
</svg>
