<svg width="29" height="28" viewBox="0 0 29 28" fill="none" xmlns="http://www.w3.org/2000/svg">
<path d="M23.5703 25.2609V2.73913C23.5703 1.22894 22.3425 0 20.833 0H9.00212C7.49298 0 6.26489 1.22894 6.26489 2.73913V25.2609C6.26489 26.7713 7.49298 28 9.00212 28H20.8635C21.5949 28 22.3063 27.699 22.8151 27.1743C23.3236 26.6496 23.5915 25.9603 23.5703 25.2609ZM21.5052 25.9025C21.3358 26.0778 21.108 26.1739 20.8634 26.1739H9.00212C8.49908 26.1739 8.0897 25.7643 8.0897 25.2609V2.73913C8.0897 2.23573 8.49908 1.82607 9.00212 1.82607H20.833C21.3361 1.82607 21.7455 2.23573 21.7455 2.73913L21.7458 25.2883C21.7527 25.5171 21.6673 25.7353 21.5052 25.9025Z" fill="white"/>
<path d="M22.6882 3.56079H7.17725V5.38686H22.6882V3.56079Z" fill="white"/>
<path d="M22.6882 21.1826H7.17725V23.0087H22.6882V21.1826Z" fill="white"/>
<path d="M15.6931 23.6478H14.1724C13.6685 23.6478 13.26 24.0566 13.26 24.5609C13.26 25.0652 13.6685 25.474 14.1724 25.474H15.6931C16.1971 25.474 16.6055 25.0652 16.6055 24.5609C16.6055 24.0566 16.197 23.6478 15.6931 23.6478Z" fill="white"/>
</svg>
