<svg width="44" height="42" viewBox="0 0 44 42" fill="none" xmlns="http://www.w3.org/2000/svg">
<g clip-path="url(#clip0)">
<path d="M18.3305 18.9315C19.0743 17.7999 19.499 16.45 19.4744 15.0027C19.4086 11.1297 16.111 8.05188 12.1479 8.05188H1.08345C0.565214 8.05188 0.14502 8.46259 0.14502 8.96912V32.7518C0.14502 33.2583 0.565214 33.669 1.08345 33.669H13.4429C18.0301 33.669 21.8301 30.0753 21.8488 25.5916C21.8603 22.8438 20.4662 20.4076 18.3305 18.9315ZM4.99905 12.7963H12.2424C13.5541 12.7963 14.6214 13.8394 14.6214 15.1217C14.6214 16.4038 13.5542 17.447 12.2424 17.447H4.99905V12.7963ZM13.5507 28.9246H4.99905V22.1915H12.2424H13.5506C15.4497 22.1915 16.9949 23.7017 16.9949 25.558C16.9949 27.4143 15.4498 28.9246 13.5507 28.9246Z" fill="#282E2E"/>
<path d="M43.1152 23.9051C43.1152 18.3673 38.6497 13.8621 33.1608 13.8621C27.6718 13.8621 23.2063 18.3674 23.2063 23.9051C23.2063 29.4428 27.6719 33.9482 33.1608 33.9482C36.4914 33.9482 39.5862 32.2794 41.4394 29.484C41.6705 29.1355 41.8803 28.7713 42.0666 28.396C42.2017 28.1235 41.9966 27.8064 41.6868 27.8057L36.7935 27.7938C36.6852 27.7935 36.5826 27.8367 36.505 27.9105C35.581 28.7886 34.4482 29.2037 33.1608 29.2037C30.7289 29.2037 28.6904 27.4259 28.1829 25.056H42.1411C42.6791 25.056 43.1152 24.6297 43.1152 24.1038V23.9051ZM33.1608 18.6065C34.9418 18.6065 36.5116 19.5605 37.4242 21.0018H28.8974C29.8099 19.5605 31.3798 18.6065 33.1608 18.6065Z" fill="#282E2E"/>
<path d="M37.297 12.6833H28.4678C28.0559 12.6833 27.7219 12.3568 27.7219 11.9542V9.78925C27.7219 9.3866 28.0559 9.06018 28.4678 9.06018H37.297C37.7089 9.06018 38.0429 9.3866 38.0429 9.78925V11.9542C38.0429 12.3569 37.7089 12.6833 37.297 12.6833Z" fill="#282E2E"/>
</g>
<defs>
<clipPath id="clip0">
<rect width="42.9702" height="42" fill="white" transform="translate(0.14502)"/>
</clipPath>
</defs>
</svg>
