<svg width="29" height="28" viewBox="0 0 29 28" fill="none" xmlns="http://www.w3.org/2000/svg">
<path d="M14.9209 0C8.23402 0 2.79382 5.2238 2.79382 11.6449C2.79382 20.3592 13.9207 27.545 14.3947 27.8466C14.5552 27.949 14.7379 28 14.9209 28C15.1037 28 15.2867 27.9486 15.4472 27.8466C15.9212 27.545 27.0481 20.3592 27.0481 11.6449C27.0481 5.2238 21.6082 0 14.9209 0ZM14.9206 25.8339C12.7668 24.3332 4.75509 18.2991 4.75509 11.6449C4.75509 6.30591 9.31532 1.96263 14.9209 1.96263C20.5266 1.96263 25.0868 6.30591 25.0868 11.6449C25.0868 18.2883 17.0734 24.3312 14.9206 25.8339Z" fill="white"/>
<path d="M14.9209 5.33215C11.8748 5.33215 9.39673 7.8119 9.39673 10.8602C9.39673 13.9081 11.8748 16.3879 14.9209 16.3879C17.9671 16.3879 20.4451 13.9081 20.4451 10.8602C20.4451 7.81229 17.9671 5.33215 14.9209 5.33215ZM14.9209 14.425C12.9564 14.425 11.358 12.8258 11.358 10.8599C11.358 8.894 12.9564 7.2945 14.9209 7.2945C16.8855 7.2945 18.4839 8.89373 18.4839 10.8599C18.4839 12.8258 16.8855 14.425 14.9209 14.425Z" fill="white"/>
</svg>
