<svg width="31" height="30" viewBox="0 0 31 30" fill="none" xmlns="http://www.w3.org/2000/svg">
<path d="M17.9595 6.79211L25.3453 14.1831C25.3806 14.2091 25.414 14.2375 25.4453 14.2681C25.5114 14.335 25.5669 14.4115 25.6101 14.4951C25.7292 14.7065 25.7614 14.9559 25.7001 15.1907C25.6387 15.4254 25.4886 15.6271 25.2814 15.7531L17.9595 23.0791C17.7837 23.2547 17.5455 23.3532 17.2972 23.353C17.0489 23.3528 16.8108 23.2539 16.6354 23.0781C16.4599 22.9023 16.3615 22.6639 16.3616 22.4154C16.3618 22.1669 16.4607 21.9287 16.6364 21.7531L22.5023 15.8831L6.74324 15.8831C6.50086 15.8752 6.27105 15.7732 6.10239 15.5989C5.93374 15.4245 5.83944 15.1913 5.83944 14.9486C5.83944 14.7059 5.93374 14.4728 6.10239 14.2984C6.27105 14.124 6.50086 14.022 6.74324 14.0141L22.5403 14.0141L16.6364 8.11311C16.5447 8.02745 16.4712 7.9242 16.4203 7.80951C16.3693 7.69482 16.342 7.57105 16.3399 7.44556C16.3378 7.32007 16.3609 7.19544 16.4079 7.0791C16.455 6.96275 16.5249 6.85708 16.6137 6.76836C16.7024 6.67965 16.808 6.60972 16.9243 6.56274C17.0406 6.51576 17.1652 6.49269 17.2906 6.4949C17.416 6.49712 17.5397 6.52458 17.6542 6.57564C17.7688 6.6267 17.8719 6.70032 17.9575 6.79211H17.9595Z" fill="black"/>
</svg>
