<svg width="44" height="44" viewBox="0 0 44 44" fill="none" xmlns="http://www.w3.org/2000/svg">
<path d="M24.8736 9.64801L35.4937 20.443L35.5291 20.47C35.7103 20.5146 35.8753 20.6107 36.0048 20.747C36.1343 20.8834 36.2231 21.0543 36.2607 21.24C36.3561 21.3992 36.4075 21.5815 36.4096 21.7679C36.4117 21.9542 36.3643 22.1377 36.2725 22.299C36.2447 22.5119 36.1501 22.7099 36.003 22.8639C35.8558 23.0179 35.6638 23.1196 35.4554 23.154L24.8736 33.911C24.6892 34.0985 24.4391 34.2038 24.1783 34.2038C23.9176 34.2038 23.6675 34.0985 23.4831 33.911L22.9786 33.398C22.7943 33.2105 22.6907 32.9562 22.6907 32.691C22.6907 32.4258 22.7943 32.1715 22.9786 31.984L31.6508 23.168L8.67485 23.168C8.41405 23.168 8.16393 23.0627 7.97952 22.8751C7.7951 22.6876 7.6915 22.4332 7.6915 22.168V21.443C7.6915 21.1778 7.7951 20.9234 7.97952 20.7359C8.16393 20.5484 8.41405 20.443 8.67485 20.443L31.7019 20.443L22.9826 11.575C22.7982 11.3875 22.6947 11.1332 22.6947 10.868C22.6947 10.6028 22.7982 10.3485 22.9826 10.161L23.487 9.64801C23.6714 9.46054 23.9215 9.35522 24.1823 9.35522C24.443 9.35522 24.6931 9.46054 24.8775 9.64801H24.8736Z" fill="black"/>
</svg>
