<svg width="27" height="33" viewBox="0 0 27 33" fill="none" xmlns="http://www.w3.org/2000/svg">
<path d="M15 7.84019C14.52 7.78686 14.1867 7.7602 14 7.7602C13.3334 7.7602 12.8267 7.89353 12.48 8.1602C12.1334 8.4002 11.8934 8.82686 11.76 9.4402H15V16.8402H11.68V32.0002H2.80002V16.8402H0.400024V9.4402H2.80002C2.85336 6.50686 3.77336 4.2402 5.56002 2.6402C7.37336 1.01353 9.90669 0.200195 13.16 0.200195C13.5334 0.200195 14.1467 0.226863 15 0.280195V7.84019Z" fill="#282E2E"/>
<path d="M21.7906 32.3202C20.244 32.3202 19.004 31.9069 18.0707 31.0802C17.1373 30.2535 16.6707 29.2135 16.6707 27.9602C16.6707 26.6802 17.1373 25.6269 18.0707 24.8002C19.004 23.9469 20.244 23.5202 21.7906 23.5202C23.3106 23.5202 24.5373 23.9469 25.4706 24.8002C26.404 25.6269 26.8706 26.6802 26.8706 27.9602C26.8706 29.2135 26.404 30.2535 25.4706 31.0802C24.5373 31.9069 23.3106 32.3202 21.7906 32.3202Z" fill="#282E2E"/>
</svg>
