<svg width="96" height="33" viewBox="0 0 96 33" fill="none" xmlns="http://www.w3.org/2000/svg">
<path d="M14.9307 7.7067C14.4507 7.65337 14.1173 7.6267 13.9307 7.6267C13.264 7.6267 12.7573 7.76003 12.4107 8.0267C12.064 8.2667 11.824 8.69337 11.6907 9.3067H14.9307V16.7067H11.6107V31.8667H2.73066V16.7067H0.330664V9.3067H2.73066C2.784 6.37337 3.704 4.1067 5.49066 2.5067C7.304 0.880032 9.83733 0.0666986 13.0907 0.0666986C13.464 0.0666986 14.0773 0.0933649 14.9307 0.146698V7.7067ZM28.0413 32.1467C25.7746 32.1467 23.7346 31.68 21.9213 30.7467C20.108 29.8134 18.6813 28.48 17.6413 26.7467C16.628 24.9867 16.1213 22.9334 16.1213 20.5867C16.1213 18.24 16.628 16.2 17.6413 14.4667C18.6813 12.7067 20.108 11.36 21.9213 10.4267C23.7346 9.49336 25.7746 9.0267 28.0413 9.0267C30.308 9.0267 32.348 9.49336 34.1613 10.4267C35.9746 11.36 37.388 12.7067 38.4013 14.4667C39.4413 16.2 39.9613 18.24 39.9613 20.5867C39.9613 22.9334 39.4413 24.9867 38.4013 26.7467C37.388 28.48 35.9746 29.8134 34.1613 30.7467C32.348 31.68 30.308 32.1467 28.0413 32.1467ZM28.0413 24.4667C28.868 24.4667 29.5613 24.1467 30.1213 23.5067C30.6813 22.84 30.9613 21.8667 30.9613 20.5867C30.9613 19.3067 30.6813 18.3467 30.1213 17.7067C29.5613 17.04 28.868 16.7067 28.0413 16.7067C27.2146 16.7067 26.5213 17.04 25.9613 17.7067C25.4013 18.3467 25.1213 19.3067 25.1213 20.5867C25.1213 21.8667 25.388 22.84 25.9213 23.5067C26.4813 24.1467 27.188 24.4667 28.0413 24.4667ZM56.791 24.3067V31.8667H53.431C47.2443 31.8667 44.151 28.7867 44.151 22.6267V16.7067H41.351V9.3067H44.151V3.8667H53.031V9.3067H56.711V16.7067H53.031V22.7867C53.031 23.32 53.151 23.7067 53.391 23.9467C53.6576 24.1867 54.0843 24.3067 54.671 24.3067H56.791ZM70.8929 32.1467C68.6262 32.1467 66.5862 31.68 64.7729 30.7467C62.9595 29.8134 61.5329 28.48 60.4929 26.7467C59.4795 24.9867 58.9729 22.9334 58.9729 20.5867C58.9729 18.24 59.4795 16.2 60.4929 14.4667C61.5329 12.7067 62.9595 11.36 64.7729 10.4267C66.5862 9.49336 68.6262 9.0267 70.8929 9.0267C73.1595 9.0267 75.1995 9.49336 77.0129 10.4267C78.8262 11.36 80.2395 12.7067 81.2529 14.4667C82.2929 16.2 82.8129 18.24 82.8129 20.5867C82.8129 22.9334 82.2929 24.9867 81.2529 26.7467C80.2395 28.48 78.8262 29.8134 77.0129 30.7467C75.1995 31.68 73.1595 32.1467 70.8929 32.1467ZM70.8929 24.4667C71.7195 24.4667 72.4129 24.1467 72.9729 23.5067C73.5329 22.84 73.8129 21.8667 73.8129 20.5867C73.8129 19.3067 73.5329 18.3467 72.9729 17.7067C72.4129 17.04 71.7195 16.7067 70.8929 16.7067C70.0662 16.7067 69.3729 17.04 68.8129 17.7067C68.2529 18.3467 67.9729 19.3067 67.9729 20.5867C67.9729 21.8667 68.2395 22.84 68.7729 23.5067C69.3329 24.1467 70.0395 24.4667 70.8929 24.4667ZM90.0025 32.1867C88.4559 32.1867 87.2159 31.7734 86.2825 30.9467C85.3492 30.12 84.8825 29.08 84.8825 27.8267C84.8825 26.5467 85.3492 25.4934 86.2825 24.6667C87.2159 23.8134 88.4559 23.3867 90.0025 23.3867C91.5225 23.3867 92.7492 23.8134 93.6825 24.6667C94.6159 25.4934 95.0825 26.5467 95.0825 27.8267C95.0825 29.08 94.6159 30.12 93.6825 30.9467C92.7492 31.7734 91.5225 32.1867 90.0025 32.1867Z" fill="#282E2E"/>
</svg>
