<svg width="29" height="18" viewBox="0 0 29 18" fill="none" xmlns="http://www.w3.org/2000/svg">
<path d="M26.3741 7.34863H17.3803C16.5525 7.34863 15.8813 7.99906 15.8813 8.80141C15.8813 9.60376 16.5525 10.2542 17.3803 10.2542H26.3741C27.2019 10.2542 27.873 9.60376 27.873 8.80141C27.873 7.99906 27.2019 7.34863 26.3741 7.34863Z" fill="#282E2E"/>
<path d="M26.2461 0.205566H1.91515C0.907332 0.205566 0.090332 0.856 0.090332 1.65835C0.090332 2.4607 0.907332 3.11113 1.91515 3.11113H26.2461C27.2539 3.11113 28.0709 2.4607 28.0709 1.65835C28.0709 0.856 27.2539 0.205566 26.2461 0.205566Z" fill="#282E2E"/>
<path d="M26.3664 14.1279H6.38031C5.55245 14.1279 4.88135 14.7784 4.88135 15.5807C4.88135 16.3831 5.55245 17.0335 6.38031 17.0335H26.3664C27.1943 17.0335 27.8654 16.3831 27.8654 15.5807C27.8654 14.7784 27.1943 14.1279 26.3664 14.1279Z" fill="#282E2E"/>
</svg>
