<svg width="81" height="80" viewBox="0 0 81 80" fill="none" xmlns="http://www.w3.org/2000/svg">
<path d="M40.5007 79.5C62.3008 79.5 79.9733 61.8152 79.9733 40C79.9733 18.1848 62.3008 0.5 40.5007 0.5C18.7006 0.5 1.02808 18.1848 1.02808 40C1.02808 61.8152 18.7006 79.5 40.5007 79.5Z" stroke="#707070"/>
<path d="M47.2415 39.4301C47.3385 39.5234 47.4157 39.6353 47.4684 39.7592C47.5212 39.8831 47.5483 40.0164 47.5483 40.1511C47.5483 40.2857 47.5212 40.419 47.4684 40.5429C47.4157 40.6668 47.3385 40.7788 47.2415 40.8721L36.6918 51.0231C36.5505 51.159 36.3724 51.2503 36.1797 51.2857C35.9869 51.3211 35.788 51.299 35.6077 51.2222C35.4274 51.1453 35.2737 51.0171 35.1656 50.8535C35.0576 50.6899 35 50.4982 35 50.3021V30.0001C35 29.804 35.0576 29.6122 35.1656 29.4486C35.2737 29.285 35.4274 29.1568 35.6077 29.08C35.788 29.0031 35.9869 28.981 36.1797 29.0164C36.3724 29.0518 36.5505 29.1432 36.6918 29.2791L47.2415 39.4301Z" fill="#282E2E"/>
</svg>
